:FULLY-SPECIFIED
:FORCE-ALL-JOINTS-BE-3DOF
:DEGREES
33
root 8.00198 15.6998 -32.1075 7.72518 -7.52471 -7.08566
lfemur -43.5922 3.66125 -8.08769
ltibia 27.0246 0 0
lfoot -6.74739 12.091 0
ltoes -7.43164 0 0
rfemur 21.2366 6.73264 30.3309
rtibia -2.32362 0 0
rfoot -9.95935 0.608863 0
rtoes -24.3617 0 0
lowerback -8.21801 1.36723 3.70931
upperback -1.23379 1.38561 3.48416
thorax 3.33124 0.70316 1.67184
lowerneck -20.5447 -4.64204 -11.7975
upperneck 15.9682 -5.97041 14.8629
head 9.24452 -1.97587 6.3225
lclavicle -2.79288e-15 9.63369e-15 0
lhumerus -43.6209 -8.38331 91.1417
lradius 26.014 0 0
lwrist 2.69756 0 0
lhand 0.183135 -19.3218 0
lfingers 7.12502 0 0
lthumb 25.7474 8.76773 0
rclavicle -2.79288e-15 9.63369e-15 0
rhumerus -44.5834 20.2706 -93.2485
rradius 60.3038 0 0
rwrist -31.3744 0 0
rhand -30.9525 -34.064 0
rfingers 7.12502 0 0
rthumb -4.23721 -63.9998 0
34
root 8.03415 15.6853 -31.9387 7.74737 -7.67242 -7.0959
lfemur -43.8288 4.37143 -8.60582
ltibia 28.2925 0 0
lfoot -5.68894 11.3929 0
ltoes -6.7688 0 0
rfemur 22.0606 6.71398 30.12
rtibia -2.76177 0 0
rfoot -9.06152 0.783836 0
rtoes -26.0057 0 0
lowerback -8.30829 1.34589 3.6331
upperback -1.23212 1.3553 3.5751
thorax 3.37973 0.686918 1.80857
lowerneck -20.6163 -4.64386 -11.8849
upperneck 15.9563 -5.93629 14.8576
head 9.25053 -1.96349 6.34071
lclavicle -2.52866e-15 1.17254e-14 0
lhumerus -43.7954 -8.15273 91.221
lradius 25.6624 0 0
lwrist 2.26593 0 0
lhand 1.06102 -19.0429 0
lfingers 7.12502 0 0
lthumb 26.5882 8.92643 0
rclavicle -2.52866e-15 1.17254e-14 0
rhumerus -44.8084 20.3332 -93.4222
rradius 59.9009 0 0
rwrist -30.9571 0 0
rhand -31.1137 -34.1656 0
rfingers 7.12502 0 0
rthumb -4.39291 -64.0982 0
35
root 8.06673 15.6722 -31.7702 7.76522 -7.81718 -7.09266
lfemur -44.0361 5.07435 -9.14058
ltibia 29.5527 0 0
lfoot -4.6635 10.701 0
ltoes -6.11683 0 0
rfemur 22.8123 6.6843 29.8924
rtibia -3.09195 0 0
rfoot -8.15213 0.939886 0
rtoes -27.5724 0 0
lowerback -8.38968 1.32302 3.54787
upperback -1.23195 1.32396 3.66201
thorax 3.42169 0.670195 1.94592
lowerneck -20.6882 -4.6451 -11.9713
upperneck 15.9458 -5.90146 14.851
head 9.25695 -1.95087 6.35845
lclavicle -2.26734e-15 1.37445e-14 0
lhumerus -43.9551 -7.91996 91.2918
lradius 25.3122 0 0
lwrist 1.83796 0 0
lhand 1.9129 -18.7699 0
lfingers 7.12502 0 0
lthumb 27.4041 9.08281 0
rclavicle -2.26734e-15 1.37445e-14 0
rhumerus -45.0226 20.3828 -93.5829
rradius 59.4729 0 0
rwrist -30.5302 0 0
rhand -31.271 -34.2485 0
rfingers 7.12502 0 0
rthumb -4.54476 -64.178 0
36
root 8.09964 15.6607 -31.6023 7.77791 -7.95987 -7.07454
lfemur -44.207 5.75989 -9.68641
ltibia 30.7839 0 0
lfoot -3.68607 10.0254 0
ltoes -5.48352 0 0
rfemur 23.4803 6.64248 29.6478
rtibia -3.29878 0 0
rfoot -7.24243 1.07184 0
rtoes -29.0381 0 0
lowerback -8.46092 1.29897 3.45379
upperback -1.23347 1.29215 3.74346
thorax 3.45625 0.653293 2.08234
lowerneck -20.7602 -4.64544 -12.0549
upperneck 15.9379 -5.86594 14.8422
head 9.26409 -1.938 6.37512
lclavicle -2.01552e-15 1.56525e-14 0
lhumerus -44.098 -7.68902 91.3534
lradius 24.9669 0 0
lwrist 1.4175 0 0
lhand 2.72901 -18.5056 0
lfingers 7.12502 0 0
lthumb 28.1858 9.23547 0
rclavicle -2.01552e-15 1.56525e-14 0
rhumerus -45.2235 20.4174 -93.7294
rradius 59.0214 0 0
rwrist -30.0977 0 0
rhand -31.4209 -34.3108 0
rfingers 7.12502 0 0
rthumb -4.68957 -64.2374 0
37
root 8.13277 15.6511 -31.4352 7.7846 -8.10139 -7.04016
lfemur -44.3345 6.41794 -10.2378
ltibia 31.965 0 0
lfoot -2.77163 9.3762 0
ltoes -4.87665 0 0
rfemur 24.0529 6.58739 29.3854
rtibia -3.36687 0 0
rfoot -6.34367 1.17453 0
rtoes -30.3788 0 0
lowerback -8.52075 1.2741 3.35101
upperback -1.23689 1.26043 3.81805
thorax 3.48254 0.636511 2.21628
lowerneck -20.8322 -4.64456 -12.1342
upperneck 15.9339 -5.82973 14.8305
head 9.27225 -1.92487 6.39015
lclavicle -1.7798e-15 1.74108e-14 0
lhumerus -44.2223 -7.46393 91.4052
lradius 24.6303 0 0
lwrist 1.0084 0 0
lhand 3.49956 -18.253 0
lfingers 7.12502 0 0
lthumb 28.9238 9.38299 0
rclavicle -1.7798e-15 1.74108e-14 0
rhumerus -45.4086 20.4347 -93.8607
rradius 58.5474 0 0
rwrist -29.6633 0 0
rhand -31.5603 -34.3511 0
rfingers 7.12502 0 0
rthumb -4.82418 -64.2749 0
38
root 8.16604 15.6437 -31.2694 7.78449 -8.24261 -6.98811
lfemur -44.4118 7.03838 -10.7891
ltibia 33.0747 0 0
lfoot -1.93518 8.7636 0
ltoes -4.304 0 0
rfemur 24.5186 6.51795 29.1046
rtibia -3.28083 0 0
rfoot -5.4671 1.24278 0
rtoes -31.5708 0 0
lowerback -8.56789 1.24878 3.23969
upperback -1.2424 1.22936 3.88433
thorax 3.4997 0.620153 2.3462
lowerneck -20.9042 -4.64216 -12.2074
upperneck 15.9349 -5.79287 14.8148
head 9.28172 -1.91147 6.40297
lclavicle -1.56678e-15 1.89809e-14 0
lhumerus -44.3258 -7.2487 91.4464
lradius 24.3059 0 0
lwrist 0.614491 0 0
lhand 4.21476 -18.0149 0
lfingers 7.12502 0 0
lthumb 29.6089 9.52395 0
rclavicle -1.56678e-15 1.89809e-14 0
rhumerus -45.5755 20.4328 -93.9756
rradius 58.0525 0 0
rwrist -29.231 0 0
rhand -31.6859 -34.3675 0
rfingers 7.12502 0 0
rthumb -4.94541 -64.2889 0
39
root 8.19935 15.6388 -31.1051 7.77673 -8.38441 -6.91701
lfemur -44.4318 7.61108 -11.3349
ltibia 34.0917 0 0
lfoot -1.1917 8.19771 0
ltoes -3.77334 0 0
rfemur 24.866 6.43302 28.805
rtibia -3.02526 0 0
rfoot -4.62397 1.27142 0
rtoes -32.5903 0 0
lowerback -8.60109 1.22336 3.11997
upperback -1.25018 1.19951 3.94091
thorax 3.50685 0.604518 2.47056
lowerneck -20.976 -4.63793 -12.2728
upperneck 15.942 -5.75537 14.7943
head 9.29283 -1.89778 6.41298
lclavicle -1.38306e-15 2.03244e-14 0
lhumerus -44.4067 -7.04735 91.4762
lradius 23.9975 0 0
lwrist 0.239631 0 0
lhand 4.86485 -17.7942 0
lfingers 7.12502 0 0
lthumb 30.2317 9.65694 0
rclavicle -1.38306e-15 2.03244e-14 0
rhumerus -45.7218 20.4095 -94.0729
rradius 57.5378 0 0
rwrist -28.8044 0 0
rhand -31.7943 -34.3585 0
rfingers 7.12502 0 0
rthumb -5.05009 -64.2777 0
40
root 8.23261 15.6366 -30.9427 7.76051 -8.52769 -6.82547
lfemur -44.3875 8.12592 -11.8696
ltibia 34.9948 0 0
lfoot -0.556188 7.68865 0
ltoes -3.29246 0 0
rfemur 25.0835 6.3315 28.4857
rtibia -2.58479 0 0
rfoot -3.82552 1.25528 0
rtoes -33.4133 0 0
lowerback -8.61907 1.19821 2.99203
upperback -1.26044 1.17143 3.98635
thorax 3.50314 0.589908 2.58779
lowerneck -21.0476 -4.63155 -12.3287
upperneck 15.9565 -5.71725 14.7681
head 9.30586 -1.88379 6.4196
lclavicle -1.23523e-15 2.14027e-14 0
lhumerus -44.463 -6.8639 91.494
lradius 23.7087 0 0
lwrist -0.11234 0 0
lhand 5.44004 -17.5937 0
lfingers 7.12502 0 0
lthumb 30.7828 9.78055 0
rclavicle -1.23523e-15 2.14027e-14 0
rhumerus -45.8449 20.3628 -94.1516
rradius 57.0047 0 0
rwrist -28.3876 0 0
rhand -31.8822 -34.3223 0
rfingers 7.12502 0 0
rthumb -5.13505 -64.2398 0
41
root 8.26572 15.6376 -30.7824 7.735 -8.67331 -6.71209
lfemur -44.272 8.57279 -12.3877
ltibia 35.7629 0 0
lfoot -0.0436332 7.24655 0
ltoes -2.86913 0 0
rfemur 25.1595 6.21228 28.1463
rtibia -1.94401 0 0
rfoot -3.08302 1.18919 0
rtoes -34.0162 0 0
lowerback -8.62059 1.17369 2.856
upperback -1.27337 1.14569 4.01924
thorax 3.48768 0.576625 2.69637
lowerneck -21.1187 -4.62271 -12.3735
upperneck 15.9796 -5.67853 14.7353
head 9.32113 -1.86949 6.42226
lclavicle -1.1299e-15 2.21773e-14 0
lhumerus -44.4927 -6.70235 91.499
lradius 23.4431 0 0
lwrist -0.437575 0 0
lhand 5.93055 -17.4163 0
lfingers 7.12502 0 0
lthumb 31.2528 9.89335 0
rclavicle -1.1299e-15 2.21773e-14 0
rhumerus -45.9424 20.2905 -94.2105
rradius 56.4546 0 0
rwrist -27.9842 0 0
rhand -31.9465 -34.2573 0
rfingers 7.12502 0 0
rthumb -5.19712 -64.1734 0
42
root 8.29859 15.642 -30.6246 7.69937 -8.82217 -6.57549
lfemur -44.0784 8.94156 -12.8835
ltibia 36.3745 0 0
lfoot 0.330973 6.88154 0
ltoes -2.51114 0 0
rfemur 25.0825 6.07425 27.7861
rtibia -1.08754 0 0
rfoot -2.4077 1.06797 0
rtoes -34.3749 0 0
lowerback -8.60436 1.15015 2.71206
upperback -1.28916 1.12285 4.03816
thorax 3.45962 0.564969 2.79473
lowerneck -21.1895 -4.6111 -12.4055
upperneck 16.0124 -5.63922 14.6951
head 9.33894 -1.85487 6.42038
lclavicle -1.07367e-15 2.26098e-14 0
lhumerus -44.4939 -6.56672 91.4905
lradius 23.2044 0 0
lwrist -0.732229 0 0
lhand 6.32659 -17.265 0
lfingers 7.12502 0 0
lthumb 31.6325 9.99394 0
rclavicle -1.07367e-15 2.26098e-14 0
rhumerus -46.0119 20.1906 -94.2485
rradius 55.8887 0 0
rwrist -27.5983 0 0
rhand -31.9838 -34.1617 0
rfingers 7.12502 0 0
rthumb -5.23312 -64.0771 0
43
root 8.33113 15.65 -30.4696 7.65281 -8.97514 -6.41427
lfemur -43.7996 9.22212 -13.3516
ltibia 36.8086 0 0
lfoot 0.55264 6.60375 0
ltoes -2.22627 0 0
rfemur 24.8411 5.91629 27.4045
rtibia 6.36111e-14 0 0
rfoot -1.81081 0.886455 0
rtoes -34.4658 0 0
lowerback -8.56913 1.12797 2.56035
upperback -1.30801 1.10347 4.04168
thorax 3.41808 0.555243 2.88133
lowerneck -21.2596 -4.59641 -12.423
upperneck 16.0562 -5.59935 14.6465
head 9.35958 -1.83992 6.41337
lclavicle -1.07313e-15 2.26615e-14 0
lhumerus -44.4645 -6.46103 91.4677
lradius 22.9962 0 0
lwrist -0.992459 0 0
lhand 6.61839 -17.1426 0
lfingers 7.12502 0 0
lthumb 31.9124 10.0809 0
rclavicle -1.07313e-15 2.26615e-14 0
rhumerus -46.0509 20.0609 -94.2645
rradius 55.3083 0 0
rwrist -27.2335 0 0
rhand -31.9908 -34.034 0
rfingers 7.12502 0 0
rthumb -5.23988 -63.9492 0
44
root 8.36417 15.6624 -30.3163 7.59363 -9.13785 -6.21882
lfemur -43.4305 9.43325 -13.8168
ltibia 37.0997 0 0
lfoot 0.625593 6.3978 0
ltoes -2.00642 0 0
rfemur 24.4143 5.72586 26.9787
rtibia 1.3998 0 0
rfoot -1.2301 0.635785 0
rtoes -34.2557 0 0
lowerback -8.50909 1.10692 2.39234
upperback -1.33232 1.08805 4.02861
thorax 3.357 0.547749 2.9596
lowerneck -21.3309 -4.57795 -12.4273
upperneck 16.1094 -5.55727 14.5897
head 9.38268 -1.82389 6.40172
lclavicle -1.10833e-15 2.23163e-14 0
lhumerus -44.4106 -6.36748 91.4267
lradius 22.8027 0 0
lwrist -1.2332 0 0
lhand 6.81748 -17.041 0
lfingers 7.12502 0 0
lthumb 32.1036 10.161 0
rclavicle -1.10833e-15 2.23163e-14 0
rhumerus -46.0548 19.8913 -94.2532
rradius 54.6787 0 0
rwrist -26.8677 0 0
rhand -31.9669 -33.8617 0
rfingers 7.12502 0 0
rthumb -5.21676 -63.7773 0
45
root 8.39852 15.6795 -30.1633 7.52148 -9.31372 -5.98312
lfemur -42.9753 9.60212 -14.3057
ltibia 37.3011 0 0
lfoot 0.571201 6.23923 0
ltoes -1.83578 0 0
rfemur 23.7992 5.49426 26.4912
rtibia 3.15831 0 0
rfoot -0.602251 0.315076 0
rtoes -33.7468 0 0
lowerback -8.42112 1.08638 2.20102
upperback -1.36377 1.07633 3.99969
thorax 3.27255 0.54237 3.03414
lowerneck -21.4047 -4.55553 -12.4215
upperneck 16.1695 -5.51162 14.5258
head 9.40755 -1.80622 6.38652
lclavicle -1.15538e-15 2.16074e-14 0
lhumerus -44.3394 -6.26703 91.3649
lradius 22.6068 0 0
lwrist -1.47101 0 0
lhand 6.94482 -16.9503 0
lfingers 7.12502 0 0
lthumb 32.2263 10.2414 0
rclavicle -1.15538e-15 2.16074e-14 0
rhumerus -46.0227 19.676 -94.2118
rradius 53.9706 0 0
rwrist -26.4784 0 0
rhand -31.9154 -33.6369 0
rfingers 7.12502 0 0
rthumb -5.16705 -63.5534 0
46
root 8.43398 15.7007 -30.0108 7.43752 -9.50038 -5.71116
lfemur -42.4412 9.7312 -14.8152
ltibia 37.4192 0 0
lfoot 0.400189 6.12454 0
ltoes -1.71056 0 0
rfemur 23.0114 5.22615 25.9492
rtibia 5.23889 0 0
rfoot 0.0630496 -0.0688764 0
rtoes -32.9681 0 0
lowerback -8.30796 1.06615 1.98883
upperback -1.40149 1.0677 3.95641
thorax 3.16726 0.538773 3.10516
lowerneck -21.4807 -4.52962 -12.4066
upperneck 16.2359 -5.4629 14.4555
head 9.43406 -1.78713 6.36808
lclavicle -1.21499e-15 2.05705e-14 0
lhumerus -44.2505 -6.16179 91.2843
lradius 22.4104 0 0
lwrist -1.70449 0 0
lhand 7.00478 -16.8707 0
lfingers 7.12502 0 0
lthumb 32.2846 10.3212 0
rclavicle -1.21499e-15 2.05705e-14 0
rhumerus -45.9582 19.4199 -94.1428
rradius 53.1933 0 0
rwrist -26.0692 0 0
rhand -31.8392 -33.3646 0
rfingers 7.12502 0 0
rthumb -5.09348 -63.2824 0
